<svg width="1500" height="106" viewBox="0 0 1500 106" fill="none" xmlns="http://www.w3.org/2000/svg">
<mask id="path-1-outside-1_1_2" maskUnits="userSpaceOnUse" x="306" y="6" width="539" height="92" fill="black">
<rect fill="white" x="306" y="6" width="539" height="92"/>
<path d="M380.271 95.646L307.465 92.696V69.096L336.729 38.652L307.465 40.422L312.657 7.736L381.215 12.574L379.917 34.994L353.013 64.73L381.215 60.6L380.271 95.646Z"/>
<path d="M450.952 8.56199L488.24 89.864L452.604 95.528L449.772 74.642L421.098 73.934L414.608 96.236L380.27 90.1L427.352 10.922L450.952 8.56199ZM433.37 39.478L428.532 51.514L446.586 51.986L442.456 39.832L433.37 39.478ZM546.738 8.68L567.506 22.958L569.158 57.886L548.154 78.182L522.076 79.834V96.472H494.582L498.948 8.68H546.738ZM526.914 35.584L526.088 49.862L533.876 50.924L543.788 39.242L526.914 35.584ZM724.887 8.56199L762.175 89.864L726.539 95.528L723.707 74.642L695.033 73.934L688.543 96.236L654.205 90.1L701.287 10.922L724.887 8.56199ZM707.305 39.478L702.467 51.514L720.521 51.986L716.391 39.832L707.305 39.478ZM820.674 8.68L841.442 22.958L843.094 57.886L822.09 78.182L796.012 79.834V96.472H768.518L772.884 8.68H820.674ZM800.85 35.584L800.024 49.862L807.812 50.924L817.724 39.242L800.85 35.584Z"/>
<path d="M654.206 95.646L581.4 92.696V69.096L610.664 38.652L581.4 40.422L586.592 7.736L655.15 12.574L653.852 34.994L626.948 64.73L655.15 60.6L654.206 95.646Z"/>
</mask>
<path d="M380.271 95.646L307.465 92.696V69.096L336.729 38.652L307.465 40.422L312.657 7.736L381.215 12.574L379.917 34.994L353.013 64.73L381.215 60.6L380.271 95.646Z" fill="#F41383"/>
<path d="M450.952 8.56199L488.24 89.864L452.604 95.528L449.772 74.642L421.098 73.934L414.608 96.236L380.27 90.1L427.352 10.922L450.952 8.56199ZM433.37 39.478L428.532 51.514L446.586 51.986L442.456 39.832L433.37 39.478ZM546.738 8.68L567.506 22.958L569.158 57.886L548.154 78.182L522.076 79.834V96.472H494.582L498.948 8.68H546.738ZM526.914 35.584L526.088 49.862L533.876 50.924L543.788 39.242L526.914 35.584ZM724.887 8.56199L762.175 89.864L726.539 95.528L723.707 74.642L695.033 73.934L688.543 96.236L654.205 90.1L701.287 10.922L724.887 8.56199ZM707.305 39.478L702.467 51.514L720.521 51.986L716.391 39.832L707.305 39.478ZM820.674 8.68L841.442 22.958L843.094 57.886L822.09 78.182L796.012 79.834V96.472H768.518L772.884 8.68H820.674ZM800.85 35.584L800.024 49.862L807.812 50.924L817.724 39.242L800.85 35.584Z" fill="black"/>
<path d="M654.206 95.646L581.4 92.696V69.096L610.664 38.652L581.4 40.422L586.592 7.736L655.15 12.574L653.852 34.994L626.948 64.73L655.15 60.6L654.206 95.646Z" fill="#001AFF"/>
<path d="M380.271 95.646L380.23 96.6452L381.243 96.6862L381.27 95.6729L380.271 95.646ZM307.465 92.696H306.465V93.6563L307.424 93.6952L307.465 92.696ZM307.465 69.096L306.744 68.403L306.465 68.6933V69.096H307.465ZM336.729 38.652L337.45 39.345L339.224 37.4993L336.668 37.6538L336.729 38.652ZM307.465 40.422L306.477 40.2651L306.282 41.4954L307.525 41.4202L307.465 40.422ZM312.657 7.736L312.727 6.73848L311.813 6.67396L311.669 7.57912L312.657 7.736ZM381.215 12.574L382.213 12.6318L382.27 11.646L381.285 11.5765L381.215 12.574ZM379.917 34.994L380.658 35.6649L380.895 35.4036L380.915 35.0518L379.917 34.994ZM353.013 64.73L352.271 64.0591L350.404 66.1227L353.158 65.7194L353.013 64.73ZM381.215 60.6L382.214 60.6269L382.246 59.4383L381.07 59.6106L381.215 60.6ZM380.271 95.646L380.311 94.6468L307.505 91.6968L307.465 92.696L307.424 93.6952L380.23 96.6452L380.271 95.646ZM307.465 92.696H308.465V69.096H307.465H306.465V92.696H307.465ZM307.465 69.096L308.186 69.789L337.45 39.345L336.729 38.652L336.008 37.959L306.744 68.403L307.465 69.096ZM336.729 38.652L336.668 37.6538L307.404 39.4238L307.465 40.422L307.525 41.4202L336.789 39.6502L336.729 38.652ZM307.465 40.422L308.452 40.5789L313.644 7.89287L312.657 7.736L311.669 7.57912L306.477 40.2651L307.465 40.422ZM312.657 7.736L312.586 8.73352L381.144 13.5715L381.215 12.574L381.285 11.5765L312.727 6.73848L312.657 7.736ZM381.215 12.574L380.217 12.5162L378.919 34.9362L379.917 34.994L380.915 35.0518L382.213 12.6318L381.215 12.574ZM379.917 34.994L379.175 34.3231L352.271 64.0591L353.013 64.73L353.754 65.4009L380.658 35.6649L379.917 34.994ZM353.013 64.73L353.158 65.7194L381.36 61.5894L381.215 60.6L381.07 59.6106L352.868 63.7406L353.013 64.73ZM381.215 60.6L380.215 60.5731L379.271 95.6191L380.271 95.646L381.27 95.6729L382.214 60.6269L381.215 60.6ZM450.952 8.56199L451.861 8.14511L451.563 7.49589L450.852 7.56696L450.952 8.56199ZM488.24 89.864L488.397 90.8516L489.698 90.6448L489.149 89.4471L488.24 89.864ZM452.604 95.528L451.613 95.6624L451.75 96.6762L452.761 96.5156L452.604 95.528ZM449.772 74.642L450.763 74.5076L450.648 73.6633L449.797 73.6423L449.772 74.642ZM421.098 73.934L421.123 72.9343L420.353 72.9153L420.138 73.6546L421.098 73.934ZM414.608 96.236L414.432 97.2204L415.317 97.3785L415.568 96.5154L414.608 96.236ZM380.27 90.1L379.41 89.5889L378.672 90.8303L380.094 91.0844L380.27 90.1ZM427.352 10.922L427.252 9.92696L426.75 9.97717L426.492 10.4109L427.352 10.922ZM433.37 39.478L433.409 38.4788L432.705 38.4513L432.442 39.105L433.37 39.478ZM428.532 51.514L427.604 51.141L427.067 52.4761L428.506 52.5137L428.532 51.514ZM446.586 51.986L446.56 52.9857L447.995 53.0232L447.533 51.6643L446.586 51.986ZM442.456 39.832L443.403 39.5103L443.182 38.8595L442.495 38.8328L442.456 39.832ZM450.952 8.56199L450.043 8.97888L487.331 90.2809L488.24 89.864L489.149 89.4471L451.861 8.14511L450.952 8.56199ZM488.24 89.864L488.083 88.8764L452.447 94.5404L452.604 95.528L452.761 96.5156L488.397 90.8516L488.24 89.864ZM452.604 95.528L453.595 95.3936L450.763 74.5076L449.772 74.642L448.781 74.7764L451.613 95.6624L452.604 95.528ZM449.772 74.642L449.797 73.6423L421.123 72.9343L421.098 73.934L421.073 74.9337L449.747 75.6417L449.772 74.642ZM421.098 73.934L420.138 73.6546L413.648 95.9566L414.608 96.236L415.568 96.5154L422.058 74.2134L421.098 73.934ZM414.608 96.236L414.784 95.2516L380.446 89.1156L380.27 90.1L380.094 91.0844L414.432 97.2204L414.608 96.236ZM380.27 90.1L381.129 90.6111L428.211 11.4331L427.352 10.922L426.492 10.4109L379.41 89.5889L380.27 90.1ZM427.352 10.922L427.451 11.917L451.051 9.55703L450.952 8.56199L450.852 7.56696L427.252 9.92696L427.352 10.922ZM433.37 39.478L432.442 39.105L427.604 51.141L428.532 51.514L429.46 51.887L434.298 39.851L433.37 39.478ZM428.532 51.514L428.506 52.5137L446.56 52.9857L446.586 51.986L446.612 50.9863L428.558 50.5143L428.532 51.514ZM446.586 51.986L447.533 51.6643L443.403 39.5103L442.456 39.832L441.509 40.1537L445.639 52.3077L446.586 51.986ZM442.456 39.832L442.495 38.8328L433.409 38.4788L433.37 39.478L433.331 40.4772L442.417 40.8312L442.456 39.832ZM546.738 8.68L547.305 7.85596L547.049 7.68H546.738V8.68ZM567.506 22.958L568.505 22.9108L568.482 22.4151L568.073 22.134L567.506 22.958ZM569.158 57.886L569.853 58.6051L570.179 58.2907L570.157 57.8388L569.158 57.886ZM548.154 78.182L548.218 79.18L548.585 79.1567L548.849 78.9011L548.154 78.182ZM522.076 79.834L522.013 78.836L521.076 78.8953V79.834H522.076ZM522.076 96.472V97.472H523.076V96.472H522.076ZM494.582 96.472L493.584 96.4223L493.531 97.472H494.582V96.472ZM498.948 8.68V7.68H497.997L497.95 8.63033L498.948 8.68ZM526.914 35.584L527.126 34.6067L525.984 34.359L525.916 35.5262L526.914 35.584ZM526.088 49.862L525.09 49.8042L525.037 50.7278L525.953 50.8528L526.088 49.862ZM533.876 50.924L533.741 51.9148L534.284 51.9889L534.639 51.571L533.876 50.924ZM543.788 39.242L544.551 39.889L545.629 38.6179L544 38.2647L543.788 39.242ZM546.738 8.68L546.172 9.50404L566.94 23.782L567.506 22.958L568.073 22.134L547.305 7.85596L546.738 8.68ZM567.506 22.958L566.508 23.0052L568.16 57.9332L569.158 57.886L570.157 57.8388L568.505 22.9108L567.506 22.958ZM569.158 57.886L568.464 57.1669L547.46 77.4629L548.154 78.182L548.849 78.9011L569.853 58.6051L569.158 57.886ZM548.154 78.182L548.091 77.184L522.013 78.836L522.076 79.834L522.14 80.832L548.218 79.18L548.154 78.182ZM522.076 79.834H521.076V96.472H522.076H523.076V79.834H522.076ZM522.076 96.472V95.472H494.582V96.472V97.472H522.076V96.472ZM494.582 96.472L495.581 96.5217L499.947 8.72967L498.948 8.68L497.95 8.63033L493.584 96.4223L494.582 96.472ZM498.948 8.68V9.68H546.738V8.68V7.68H498.948V8.68ZM526.914 35.584L525.916 35.5262L525.09 49.8042L526.088 49.862L527.087 49.9198L527.913 35.6418L526.914 35.584ZM526.088 49.862L525.953 50.8528L533.741 51.9148L533.876 50.924L534.012 49.9332L526.224 48.8712L526.088 49.862ZM533.876 50.924L534.639 51.571L544.551 39.889L543.788 39.242L543.026 38.595L533.114 50.277L533.876 50.924ZM543.788 39.242L544 38.2647L527.126 34.6067L526.914 35.584L526.703 36.5613L543.577 40.2193L543.788 39.242ZM654.206 95.646L654.166 96.6452L655.178 96.6862L655.206 95.6729L654.206 95.646ZM581.4 92.696H580.4V93.6563L581.36 93.6952L581.4 92.696ZM581.4 69.096L580.679 68.403L580.4 68.6933V69.096H581.4ZM610.664 38.652L611.385 39.345L613.159 37.4993L610.604 37.6538L610.664 38.652ZM581.4 40.422L580.412 40.2651L580.217 41.4954L581.46 41.4202L581.4 40.422ZM586.592 7.736L586.662 6.73848L585.748 6.67396L585.604 7.57912L586.592 7.736ZM655.15 12.574L656.148 12.6318L656.205 11.646L655.22 11.5765L655.15 12.574ZM653.852 34.994L654.594 35.6649L654.83 35.4036L654.85 35.0518L653.852 34.994ZM626.948 64.73L626.206 64.0591L624.339 66.1227L627.093 65.7194L626.948 64.73ZM655.15 60.6L656.15 60.6269L656.182 59.4383L655.005 59.6106L655.15 60.6ZM654.206 95.646L654.246 94.6468L581.44 91.6968L581.4 92.696L581.36 93.6952L654.166 96.6452L654.206 95.646ZM581.4 92.696H582.4V69.096H581.4H580.4V92.696H581.4ZM581.4 69.096L582.121 69.789L611.385 39.345L610.664 38.652L609.943 37.959L580.679 68.403L581.4 69.096ZM610.664 38.652L610.604 37.6538L581.34 39.4238L581.4 40.422L581.46 41.4202L610.724 39.6502L610.664 38.652ZM581.4 40.422L582.388 40.5789L587.58 7.89287L586.592 7.736L585.604 7.57912L580.412 40.2651L581.4 40.422ZM586.592 7.736L586.522 8.73352L655.08 13.5715L655.15 12.574L655.22 11.5765L586.662 6.73848L586.592 7.736ZM655.15 12.574L654.152 12.5162L652.854 34.9362L653.852 34.994L654.85 35.0518L656.148 12.6318L655.15 12.574ZM653.852 34.994L653.11 34.3231L626.206 64.0591L626.948 64.73L627.69 65.4009L654.594 35.6649L653.852 34.994ZM626.948 64.73L627.093 65.7194L655.295 61.5894L655.15 60.6L655.005 59.6106L626.803 63.7406L626.948 64.73ZM655.15 60.6L654.15 60.5731L653.206 95.6191L654.206 95.646L655.206 95.6729L656.15 60.6269L655.15 60.6ZM724.887 8.56199L725.796 8.14511L725.498 7.49589L724.788 7.56696L724.887 8.56199ZM762.175 89.864L762.332 90.8516L763.633 90.6448L763.084 89.4471L762.175 89.864ZM726.539 95.528L725.548 95.6624L725.686 96.6762L726.696 96.5156L726.539 95.528ZM723.707 74.642L724.698 74.5076L724.584 73.6633L723.732 73.6423L723.707 74.642ZM695.033 73.934L695.058 72.9343L694.288 72.9153L694.073 73.6546L695.033 73.934ZM688.543 96.236L688.367 97.2204L689.252 97.3785L689.503 96.5154L688.543 96.236ZM654.205 90.1L653.346 89.5889L652.607 90.8303L654.029 91.0844L654.205 90.1ZM701.287 10.922L701.188 9.92696L700.685 9.97717L700.428 10.4109L701.287 10.922ZM707.305 39.478L707.344 38.4788L706.64 38.4513L706.377 39.105L707.305 39.478ZM702.467 51.514L701.539 51.141L701.003 52.4761L702.441 52.5137L702.467 51.514ZM720.521 51.986L720.495 52.9857L721.93 53.0232L721.468 51.6643L720.521 51.986ZM716.391 39.832L717.338 39.5103L717.117 38.8595L716.43 38.8328L716.391 39.832ZM724.887 8.56199L723.978 8.97888L761.266 90.2809L762.175 89.864L763.084 89.4471L725.796 8.14511L724.887 8.56199ZM762.175 89.864L762.018 88.8764L726.382 94.5404L726.539 95.528L726.696 96.5156L762.332 90.8516L762.175 89.864ZM726.539 95.528L727.53 95.3936L724.698 74.5076L723.707 74.642L722.716 74.7764L725.548 95.6624L726.539 95.528ZM723.707 74.642L723.732 73.6423L695.058 72.9343L695.033 73.934L695.008 74.9337L723.682 75.6417L723.707 74.642ZM695.033 73.934L694.073 73.6546L687.583 95.9566L688.543 96.236L689.503 96.5154L695.993 74.2134L695.033 73.934ZM688.543 96.236L688.719 95.2516L654.381 89.1156L654.205 90.1L654.029 91.0844L688.367 97.2204L688.543 96.236ZM654.205 90.1L655.065 90.6111L702.147 11.4331L701.287 10.922L700.428 10.4109L653.346 89.5889L654.205 90.1ZM701.287 10.922L701.387 11.917L724.987 9.55703L724.887 8.56199L724.788 7.56696L701.188 9.92696L701.287 10.922ZM707.305 39.478L706.377 39.105L701.539 51.141L702.467 51.514L703.395 51.887L708.233 39.851L707.305 39.478ZM702.467 51.514L702.441 52.5137L720.495 52.9857L720.521 51.986L720.547 50.9863L702.493 50.5143L702.467 51.514ZM720.521 51.986L721.468 51.6643L717.338 39.5103L716.391 39.832L715.444 40.1537L719.574 52.3077L720.521 51.986ZM716.391 39.832L716.43 38.8328L707.344 38.4788L707.305 39.478L707.266 40.4772L716.352 40.8312L716.391 39.832ZM820.674 8.68L821.24 7.85596L820.984 7.68H820.674V8.68ZM841.442 22.958L842.44 22.9108L842.417 22.4151L842.008 22.134L841.442 22.958ZM843.094 57.886L843.788 58.6051L844.114 58.2907L844.092 57.8388L843.094 57.886ZM822.09 78.182L822.153 79.18L822.52 79.1567L822.784 78.9011L822.09 78.182ZM796.012 79.834L795.948 78.836L795.012 78.8953V79.834H796.012ZM796.012 96.472V97.472H797.012V96.472H796.012ZM768.518 96.472L767.519 96.4223L767.467 97.472H768.518V96.472ZM772.884 8.68V7.68H771.932L771.885 8.63033L772.884 8.68ZM800.85 35.584L801.061 34.6067L799.919 34.359L799.851 35.5262L800.85 35.584ZM800.024 49.862L799.025 49.8042L798.972 50.7278L799.888 50.8528L800.024 49.862ZM807.812 50.924L807.676 51.9148L808.22 51.9889L808.574 51.571L807.812 50.924ZM817.724 39.242L818.486 39.889L819.565 38.6179L817.935 38.2647L817.724 39.242ZM820.674 8.68L820.107 9.50404L840.875 23.782L841.442 22.958L842.008 22.134L821.24 7.85596L820.674 8.68ZM841.442 22.958L840.443 23.0052L842.095 57.9332L843.094 57.886L844.092 57.8388L842.44 22.9108L841.442 22.958ZM843.094 57.886L842.399 57.1669L821.395 77.4629L822.09 78.182L822.784 78.9011L843.788 58.6051L843.094 57.886ZM822.09 78.182L822.026 77.184L795.948 78.836L796.012 79.834L796.075 80.832L822.153 79.18L822.09 78.182ZM796.012 79.834H795.012V96.472H796.012H797.012V79.834H796.012ZM796.012 96.472V95.472H768.518V96.472V97.472H796.012V96.472ZM768.518 96.472L769.516 96.5217L773.882 8.72967L772.884 8.68L771.885 8.63033L767.519 96.4223L768.518 96.472ZM772.884 8.68V9.68H820.674V8.68V7.68H772.884V8.68ZM800.85 35.584L799.851 35.5262L799.025 49.8042L800.024 49.862L801.022 49.9198L801.848 35.6418L800.85 35.584ZM800.024 49.862L799.888 50.8528L807.676 51.9148L807.812 50.924L807.947 49.9332L800.159 48.8712L800.024 49.862ZM807.812 50.924L808.574 51.571L818.486 39.889L817.724 39.242L816.961 38.595L807.049 50.277L807.812 50.924ZM817.724 39.242L817.935 38.2647L801.061 34.6067L800.85 35.584L800.638 36.5613L817.512 40.2193L817.724 39.242Z" fill="black" mask="url(#path-1-outside-1_1_2)"/>
<path d="M942 0.5H1428C1445.95 0.500005 1460.5 15.0507 1460.5 33V69C1460.5 86.9493 1445.95 101.5 1428 101.5H942C924.051 101.5 909.5 86.9493 909.5 69V33C909.5 15.0507 924.051 0.5 942 0.5Z" fill="url(#paint0_linear_1_2)" stroke="black"/>
<mask id="path-4-outside-2_1_2" maskUnits="userSpaceOnUse" x="956" y="7" width="453" height="92" fill="black">
<rect fill="white" x="956" y="7" width="453" height="92"/>
<path d="M995.699 9.208L1028.27 11.332L1026.97 42.602L1005.73 32.69L987.203 41.304L986.377 61.364L1002.66 72.456L1026.61 59.948L1034.64 92.87L987.557 97L964.547 76.822L957.703 51.452L968.323 24.194L995.699 9.208ZM1099.21 9.56199L1136.5 90.864L1100.86 96.528L1098.03 75.642L1069.36 74.934L1062.87 97.236L1028.53 91.1L1075.61 11.922L1099.21 9.56199ZM1081.63 40.478L1076.79 52.514L1094.85 52.986L1090.72 40.832L1081.63 40.478ZM1191.81 9.798L1213.64 25.728L1215.65 53.222L1203.38 66.91L1225.21 86.144L1199.6 97.236L1172.81 74.344L1176.83 97.118H1149.69L1142.84 13.574L1191.81 9.798ZM1172.81 34.224L1172.11 50.98L1179.3 51.924L1186.5 41.54L1172.81 34.224ZM1277.92 9.208L1302.7 29.504L1307.78 76.822L1283.35 96.764H1234.5V14.518L1277.92 9.208ZM1261.52 40.714V66.438L1277.45 60.892V48.03L1261.52 40.714ZM1406.75 31.392L1391.53 50.154L1373.71 38.708L1369.23 44.372L1401.09 67.736L1385.63 96.882H1347.75L1321.32 75.878L1332.77 56.644L1355.54 69.506L1358.96 64.196L1325.57 44.372L1357.19 8.97199H1385.63L1406.75 31.392Z"/>
</mask>
<path d="M995.699 9.208L1028.27 11.332L1026.97 42.602L1005.73 32.69L987.203 41.304L986.377 61.364L1002.66 72.456L1026.61 59.948L1034.64 92.87L987.557 97L964.547 76.822L957.703 51.452L968.323 24.194L995.699 9.208ZM1099.21 9.56199L1136.5 90.864L1100.86 96.528L1098.03 75.642L1069.36 74.934L1062.87 97.236L1028.53 91.1L1075.61 11.922L1099.21 9.56199ZM1081.63 40.478L1076.79 52.514L1094.85 52.986L1090.72 40.832L1081.63 40.478ZM1191.81 9.798L1213.64 25.728L1215.65 53.222L1203.38 66.91L1225.21 86.144L1199.6 97.236L1172.81 74.344L1176.83 97.118H1149.69L1142.84 13.574L1191.81 9.798ZM1172.81 34.224L1172.11 50.98L1179.3 51.924L1186.5 41.54L1172.81 34.224ZM1277.92 9.208L1302.7 29.504L1307.78 76.822L1283.35 96.764H1234.5V14.518L1277.92 9.208ZM1261.52 40.714V66.438L1277.45 60.892V48.03L1261.52 40.714ZM1406.75 31.392L1391.53 50.154L1373.71 38.708L1369.23 44.372L1401.09 67.736L1385.63 96.882H1347.75L1321.32 75.878L1332.77 56.644L1355.54 69.506L1358.96 64.196L1325.57 44.372L1357.19 8.97199H1385.63L1406.75 31.392Z" fill="white"/>
<path d="M995.699 9.208L995.764 8.21012L995.474 8.19119L995.218 8.33083L995.699 9.208ZM1028.27 11.332L1029.27 11.3735L1029.31 10.3977L1028.33 10.3341L1028.27 11.332ZM1026.97 42.602L1026.55 43.5082L1027.91 44.1427L1027.97 42.6435L1026.97 42.602ZM1005.73 32.69L1006.15 31.7838L1005.73 31.5868L1005.31 31.7832L1005.73 32.69ZM987.203 41.304L986.781 40.3972L986.229 40.6541L986.203 41.2629L987.203 41.304ZM986.377 61.364L985.377 61.3229L985.355 61.8778L985.814 62.1905L986.377 61.364ZM1002.66 72.456L1002.1 73.2825L1002.59 73.6196L1003.12 73.3424L1002.66 72.456ZM1026.61 59.948L1027.59 59.7112L1027.28 58.4705L1026.15 59.0616L1026.61 59.948ZM1034.64 92.87L1034.73 93.8662L1035.89 93.7644L1035.61 92.6332L1034.64 92.87ZM987.557 97L986.897 97.7519L987.218 98.0335L987.644 97.9962L987.557 97ZM964.547 76.822L963.581 77.0825L963.66 77.3745L963.887 77.5739L964.547 76.822ZM957.703 51.452L956.771 51.089L956.652 51.3952L956.737 51.7125L957.703 51.452ZM968.323 24.194L967.842 23.3168L967.523 23.4917L967.391 23.831L968.323 24.194ZM995.699 9.208L995.634 10.2059L1028.2 12.3299L1028.27 11.332L1028.33 10.3341L995.764 8.21012L995.699 9.208ZM1028.27 11.332L1027.27 11.2905L1025.97 42.5605L1026.97 42.602L1027.97 42.6435L1029.27 11.3735L1028.27 11.332ZM1026.97 42.602L1027.39 41.6958L1006.15 31.7838L1005.73 32.69L1005.31 33.5962L1026.55 43.5082L1026.97 42.602ZM1005.73 32.69L1005.31 31.7832L986.781 40.3972L987.203 41.304L987.624 42.2108L1006.15 33.5968L1005.73 32.69ZM987.203 41.304L986.203 41.2629L985.377 61.3229L986.377 61.364L987.376 61.4051L988.202 41.3451L987.203 41.304ZM986.377 61.364L985.814 62.1905L1002.1 73.2825L1002.66 72.456L1003.22 71.6295L986.94 60.5375L986.377 61.364ZM1002.66 72.456L1003.12 73.3424L1027.08 60.8344L1026.61 59.948L1026.15 59.0616L1002.2 71.5696L1002.66 72.456ZM1026.61 59.948L1025.64 60.1848L1033.67 93.1068L1034.64 92.87L1035.61 92.6332L1027.59 59.7112L1026.61 59.948ZM1034.64 92.87L1034.55 91.8738L987.469 96.0038L987.557 97L987.644 97.9962L1034.73 93.8662L1034.64 92.87ZM987.557 97L988.216 96.2481L965.206 76.0701L964.547 76.822L963.887 77.5739L986.897 97.7519L987.557 97ZM964.547 76.822L965.512 76.5615L958.668 51.1915L957.703 51.452L956.737 51.7125L963.581 77.0825L964.547 76.822ZM957.703 51.452L958.634 51.815L969.254 24.557L968.323 24.194L967.391 23.831L956.771 51.089L957.703 51.452ZM968.323 24.194L968.803 25.0712L996.179 10.0852L995.699 9.208L995.218 8.33083L967.842 23.3168L968.323 24.194ZM1099.21 9.56199L1100.12 9.14511L1099.82 8.49589L1099.11 8.56696L1099.21 9.56199ZM1136.5 90.864L1136.66 91.8516L1137.96 91.6448L1137.41 90.4471L1136.5 90.864ZM1100.86 96.528L1099.87 96.6624L1100.01 97.6762L1101.02 97.5156L1100.86 96.528ZM1098.03 75.642L1099.02 75.5076L1098.91 74.6633L1098.06 74.6423L1098.03 75.642ZM1069.36 74.934L1069.38 73.9343L1068.61 73.9153L1068.4 74.6546L1069.36 74.934ZM1062.87 97.236L1062.69 98.2204L1063.58 98.3785L1063.83 97.5154L1062.87 97.236ZM1028.53 91.1L1027.67 90.5889L1026.93 91.8303L1028.35 92.0844L1028.53 91.1ZM1075.61 11.922L1075.51 10.927L1075.01 10.9772L1074.75 11.4109L1075.61 11.922ZM1081.63 40.478L1081.67 39.4788L1080.97 39.4513L1080.7 40.105L1081.63 40.478ZM1076.79 52.514L1075.86 52.141L1075.33 53.4761L1076.77 53.5137L1076.79 52.514ZM1094.85 52.986L1094.82 53.9857L1096.25 54.0232L1095.79 52.6643L1094.85 52.986ZM1090.72 40.832L1091.66 40.5103L1091.44 39.8595L1090.76 39.8328L1090.72 40.832ZM1099.21 9.56199L1098.3 9.97888L1135.59 91.2809L1136.5 90.864L1137.41 90.4471L1100.12 9.14511L1099.21 9.56199ZM1136.5 90.864L1136.34 89.8764L1100.71 95.5404L1100.86 96.528L1101.02 97.5156L1136.66 91.8516L1136.5 90.864ZM1100.86 96.528L1101.86 96.3936L1099.02 75.5076L1098.03 75.642L1097.04 75.7764L1099.87 96.6624L1100.86 96.528ZM1098.03 75.642L1098.06 74.6423L1069.38 73.9343L1069.36 74.934L1069.33 75.9337L1098.01 76.6417L1098.03 75.642ZM1069.36 74.934L1068.4 74.6546L1061.91 96.9566L1062.87 97.236L1063.83 97.5154L1070.32 75.2134L1069.36 74.934ZM1062.87 97.236L1063.04 96.2516L1028.71 90.1156L1028.53 91.1L1028.35 92.0844L1062.69 98.2204L1062.87 97.236ZM1028.53 91.1L1029.39 91.6111L1076.47 12.4331L1075.61 11.922L1074.75 11.4109L1027.67 90.5889L1028.53 91.1ZM1075.61 11.922L1075.71 12.917L1099.31 10.557L1099.21 9.56199L1099.11 8.56696L1075.51 10.927L1075.61 11.922ZM1081.63 40.478L1080.7 40.105L1075.86 52.141L1076.79 52.514L1077.72 52.887L1082.56 40.851L1081.63 40.478ZM1076.79 52.514L1076.77 53.5137L1094.82 53.9857L1094.85 52.986L1094.87 51.9863L1076.82 51.5143L1076.79 52.514ZM1094.85 52.986L1095.79 52.6643L1091.66 40.5103L1090.72 40.832L1089.77 41.1537L1093.9 53.3077L1094.85 52.986ZM1090.72 40.832L1090.76 39.8328L1081.67 39.4788L1081.63 40.478L1081.59 41.4772L1090.68 41.8312L1090.72 40.832ZM1191.81 9.798L1192.4 8.99021L1192.1 8.77257L1191.74 8.80096L1191.81 9.798ZM1213.64 25.728L1214.64 25.6552L1214.61 25.1933L1214.23 24.9202L1213.64 25.728ZM1215.65 53.222L1216.39 53.8895L1216.68 53.5731L1216.65 53.1492L1215.65 53.222ZM1203.38 66.91L1202.63 66.2425L1201.96 66.9935L1202.72 67.6603L1203.38 66.91ZM1225.21 86.144L1225.6 87.0616L1227.05 86.4353L1225.87 85.3937L1225.21 86.144ZM1199.6 97.236L1198.95 97.9962L1199.43 98.4017L1200 98.1536L1199.6 97.236ZM1172.81 74.344L1173.46 73.5838L1171.35 71.7738L1171.83 74.5175L1172.81 74.344ZM1176.83 97.118V98.118H1178.02L1177.81 96.9445L1176.83 97.118ZM1149.69 97.118L1148.69 97.1996L1148.77 98.118H1149.69V97.118ZM1142.84 13.574L1142.77 12.577L1141.76 12.6542L1141.85 13.6556L1142.84 13.574ZM1172.81 34.224L1173.29 33.3421L1171.88 32.592L1171.82 34.1818L1172.81 34.224ZM1172.11 50.98L1171.11 50.9378L1171.07 51.8525L1171.98 51.9715L1172.11 50.98ZM1179.3 51.924L1179.17 52.9155L1179.78 52.9948L1180.13 52.4937L1179.3 51.924ZM1186.5 41.54L1187.32 42.1097L1187.96 41.1872L1186.97 40.6581L1186.5 41.54ZM1191.81 9.798L1191.22 10.6058L1213.05 26.5358L1213.64 25.728L1214.23 24.9202L1192.4 8.99021L1191.81 9.798ZM1213.64 25.728L1212.65 25.8008L1214.65 53.2948L1215.65 53.222L1216.65 53.1492L1214.64 25.6552L1213.64 25.728ZM1215.65 53.222L1214.9 52.5545L1202.63 66.2425L1203.38 66.91L1204.12 67.5775L1216.39 53.8895L1215.65 53.222ZM1203.38 66.91L1202.72 67.6603L1224.55 86.8943L1225.21 86.144L1225.87 85.3937L1204.04 66.1597L1203.38 66.91ZM1225.21 86.144L1224.81 85.2264L1199.2 96.3184L1199.6 97.236L1200 98.1536L1225.6 87.0616L1225.21 86.144ZM1199.6 97.236L1200.25 96.4758L1173.46 73.5838L1172.81 74.344L1172.17 75.1042L1198.95 97.9962L1199.6 97.236ZM1172.81 74.344L1171.83 74.5175L1175.84 97.2915L1176.83 97.118L1177.81 96.9445L1173.8 74.1705L1172.81 74.344ZM1176.83 97.118V96.118H1149.69V97.118V98.118H1176.83V97.118ZM1149.69 97.118L1150.68 97.0364L1143.84 13.4924L1142.84 13.574L1141.85 13.6556L1148.69 97.1996L1149.69 97.118ZM1142.84 13.574L1142.92 14.571L1191.89 10.795L1191.81 9.798L1191.74 8.80096L1142.77 12.577L1142.84 13.574ZM1172.81 34.224L1171.82 34.1818L1171.11 50.9378L1172.11 50.98L1173.11 51.0222L1173.81 34.2662L1172.81 34.224ZM1172.11 50.98L1171.98 51.9715L1179.17 52.9155L1179.3 51.924L1179.43 50.9325L1172.24 49.9885L1172.11 50.98ZM1179.3 51.924L1180.13 52.4937L1187.32 42.1097L1186.5 41.54L1185.68 40.9703L1178.48 51.3543L1179.3 51.924ZM1186.5 41.54L1186.97 40.6581L1173.29 33.3421L1172.81 34.224L1172.34 35.1059L1186.03 42.4219L1186.5 41.54ZM1277.92 9.208L1278.56 8.43437L1278.23 8.16351L1277.8 8.21539L1277.92 9.208ZM1302.7 29.504L1303.7 29.3974L1303.65 28.99L1303.34 28.7304L1302.7 29.504ZM1307.78 76.822L1308.41 77.5966L1308.83 77.254L1308.77 76.7154L1307.78 76.822ZM1283.35 96.764V97.764H1283.71L1283.98 97.5386L1283.35 96.764ZM1234.5 96.764H1233.5V97.764H1234.5V96.764ZM1234.5 14.518L1234.38 13.5254L1233.5 13.6328V14.518H1234.5ZM1261.52 40.714L1261.94 39.8053L1260.52 39.1543V40.714H1261.52ZM1261.52 66.438H1260.52V67.845L1261.85 67.3824L1261.52 66.438ZM1277.45 60.892L1277.78 61.8364L1278.45 61.6027V60.892H1277.45ZM1277.45 48.03H1278.45V47.3888L1277.87 47.1213L1277.45 48.03ZM1277.92 9.208L1277.29 9.98163L1302.07 30.2776L1302.7 29.504L1303.34 28.7304L1278.56 8.43437L1277.92 9.208ZM1302.7 29.504L1301.71 29.6106L1306.78 76.9286L1307.78 76.822L1308.77 76.7154L1303.7 29.3974L1302.7 29.504ZM1307.78 76.822L1307.15 76.0474L1282.72 95.9894L1283.35 96.764L1283.98 97.5386L1308.41 77.5966L1307.78 76.822ZM1283.35 96.764V95.764H1234.5V96.764V97.764H1283.35V96.764ZM1234.5 96.764H1235.5V14.518H1234.5H1233.5V96.764H1234.5ZM1234.5 14.518L1234.62 15.5106L1278.05 10.2006L1277.92 9.208L1277.8 8.21539L1234.38 13.5254L1234.5 14.518ZM1261.52 40.714H1260.52V66.438H1261.52H1262.52V40.714H1261.52ZM1261.52 66.438L1261.85 67.3824L1277.78 61.8364L1277.45 60.892L1277.12 59.9476L1261.19 65.4936L1261.52 66.438ZM1277.45 60.892H1278.45V48.03H1277.45H1276.45V60.892H1277.45ZM1277.45 48.03L1277.87 47.1213L1261.94 39.8053L1261.52 40.714L1261.1 41.6227L1277.03 48.9387L1277.45 48.03ZM1406.75 31.392L1407.53 32.022L1408.08 31.3429L1407.48 30.7063L1406.75 31.392ZM1391.53 50.154L1390.99 50.9954L1391.74 51.4791L1392.31 50.784L1391.53 50.154ZM1373.71 38.708L1374.25 37.8666L1373.49 37.377L1372.93 38.0873L1373.71 38.708ZM1369.23 44.372L1368.44 43.7513L1367.8 44.5648L1368.64 45.1784L1369.23 44.372ZM1401.09 67.736L1401.97 68.2045L1402.38 67.4408L1401.68 66.9296L1401.09 67.736ZM1385.63 96.882V97.882H1386.23L1386.51 97.3505L1385.63 96.882ZM1347.75 96.882L1347.13 97.6649L1347.4 97.882H1347.75V96.882ZM1321.32 75.878L1320.46 75.3666L1320.01 76.1174L1320.7 76.6609L1321.32 75.878ZM1332.77 56.644L1333.26 55.7733L1332.41 55.2925L1331.91 56.1326L1332.77 56.644ZM1355.54 69.506L1355.05 70.3767L1355.87 70.8406L1356.38 70.0477L1355.54 69.506ZM1358.96 64.196L1359.8 64.7377L1360.37 63.8657L1359.47 63.3361L1358.96 64.196ZM1325.57 44.372L1324.82 43.7058L1324.01 44.6118L1325.06 45.2319L1325.57 44.372ZM1357.19 8.97199V7.97199H1356.74L1356.45 8.30578L1357.19 8.97199ZM1385.63 8.97199L1386.36 8.28627L1386.06 7.97199H1385.63V8.97199ZM1406.75 31.392L1405.98 30.762L1390.75 49.524L1391.53 50.154L1392.31 50.784L1407.53 32.022L1406.75 31.392ZM1391.53 50.154L1392.07 49.3126L1374.25 37.8666L1373.71 38.708L1373.17 39.5494L1390.99 50.9954L1391.53 50.154ZM1373.71 38.708L1372.93 38.0873L1368.44 43.7513L1369.23 44.372L1370.01 44.9927L1374.5 39.3287L1373.71 38.708ZM1369.23 44.372L1368.64 45.1784L1400.5 68.5424L1401.09 67.736L1401.68 66.9296L1369.82 43.5656L1369.23 44.372ZM1401.09 67.736L1400.21 67.2675L1384.75 96.4135L1385.63 96.882L1386.51 97.3505L1401.97 68.2045L1401.09 67.736ZM1385.63 96.882V95.882H1347.75V96.882V97.882H1385.63V96.882ZM1347.75 96.882L1348.37 96.0991L1321.94 75.0951L1321.32 75.878L1320.7 76.6609L1347.13 97.6649L1347.75 96.882ZM1321.32 75.878L1322.18 76.3894L1333.63 57.1554L1332.77 56.644L1331.91 56.1326L1320.46 75.3666L1321.32 75.878ZM1332.77 56.644L1332.27 57.5147L1355.05 70.3767L1355.54 69.506L1356.03 68.6353L1333.26 55.7733L1332.77 56.644ZM1355.54 69.506L1356.38 70.0477L1359.8 64.7377L1358.96 64.196L1358.12 63.6543L1354.7 68.9643L1355.54 69.506ZM1358.96 64.196L1359.47 63.3361L1326.08 43.5121L1325.57 44.372L1325.06 45.2319L1358.45 65.0559L1358.96 64.196ZM1325.57 44.372L1326.31 45.0382L1357.94 9.63821L1357.19 8.97199L1356.45 8.30578L1324.82 43.7058L1325.57 44.372ZM1357.19 8.97199V9.97199H1385.63V8.97199V7.97199H1357.19V8.97199ZM1385.63 8.97199L1384.9 9.65772L1406.02 32.0777L1406.75 31.392L1407.48 30.7063L1386.36 8.28627L1385.63 8.97199Z" fill="black" mask="url(#path-4-outside-2_1_2)"/>
<line x1="240" y1="6.06982e-09" x2="240" y2="106" stroke="#3E3E3E" stroke-width="20"/>
<path d="M103.666 85.5778L80.3324 59.0622C79.6188 58.2511 78.4525 58.2511 77.7388 59.0622L67.3688 70.8464C66.6551 71.6575 66.6551 72.9835 67.3688 73.7938L90.7023 100.309C91.4155 101.12 92.5823 101.12 93.2956 100.309L103.666 88.5245C104.379 87.7139 104.379 86.3881 103.666 85.5778Z" fill="white"/>
<path d="M98.2913 38.7896L121.506 65.1702C121.525 65.1921 121.546 65.2149 121.566 65.238C123.03 66.8274 125.372 66.8052 126.811 65.1702L150.105 38.6999C151.52 37.0919 151.52 34.4597 150.105 32.8517L148.15 30.6308L146.195 28.4097L140.858 34.4759C137.377 38.4322 131.68 38.4312 128.199 34.4759L125.302 31.1834C121.821 27.2271 121.821 20.7539 125.302 16.7988L130.64 10.7326L128.686 8.51212L126.731 6.29103C125.316 4.68205 123 4.68205 121.585 6.29103L98.2915 32.7609C96.852 34.397 96.8328 37.0578 98.2313 38.7218C98.2516 38.7439 98.2714 38.7675 98.2913 38.7896Z" fill="white"/>
<path d="M98.2913 38.7896L98.2311 38.7218C98.2516 38.7439 98.2714 38.7675 98.2913 38.7896ZM121.565 65.238L98.2913 38.7896L98.2311 38.7218L80.3321 59.0614L103.666 85.5778L121.565 65.238ZM97.1892 57.878C99.2657 55.5191 102.632 55.5191 104.708 57.878C106.784 60.237 106.784 64.0622 104.708 66.422C102.632 68.7811 99.2657 68.7811 97.1892 66.422C95.1135 64.0622 95.1135 60.2372 97.1892 57.878Z" fill="white"/>
<path d="M100.949 68.1911C103.886 68.1911 106.266 65.4862 106.266 62.1495C106.266 58.8128 103.886 56.1079 100.949 56.1079C98.0131 56.1079 95.6328 58.8128 95.6328 62.1495C95.6328 65.4862 98.0131 68.1911 100.949 68.1911Z" fill="white"/>
<path d="M114.459 35.0658C114.817 35.4781 115.29 35.6847 115.763 35.6847C116.229 35.6847 116.695 35.4843 117.052 35.0828C117.772 34.2736 117.779 32.9545 117.067 32.1359L117.036 32.1004C116.324 31.282 115.163 31.2744 114.443 32.0836C113.722 32.8927 113.716 34.2119 114.428 35.0304L114.459 35.0658Z" fill="#000003"/>
<path d="M120.783 36.3601C120.067 35.5466 118.906 35.5466 118.19 36.3601C117.474 37.1738 117.474 38.4933 118.19 39.3072L124.806 46.8253C125.164 47.2322 125.634 47.4357 126.103 47.4357C126.572 47.4357 127.041 47.2322 127.399 46.8253C128.115 46.0117 128.115 44.6921 127.399 43.8783L120.783 36.3601Z" fill="#000003"/>
<path d="M111.843 37.9851C111.127 37.1716 109.966 37.1716 109.249 37.9851C108.533 38.7988 108.533 40.1183 109.25 40.9322L119.621 52.7177C119.979 53.1245 120.448 53.3281 120.917 53.3281C121.387 53.3281 121.856 53.1245 122.214 52.7177C122.93 51.904 122.93 50.5845 122.214 49.7706L111.843 37.9851Z" fill="#000003"/>
<path d="M151.401 31.3775L150.743 30.6298L152.462 28.6759C153.179 27.8623 153.178 26.5427 152.462 25.7291C151.746 24.9154 150.585 24.9154 149.869 25.7293L148.15 27.683L147.492 26.9353C147.149 26.5447 146.682 26.325 146.196 26.325C145.709 26.325 145.243 26.5445 144.899 26.9355L139.561 33.0017C138.224 34.5212 136.437 35.3581 134.529 35.3581C132.621 35.3581 130.834 34.521 129.496 33.0015L126.599 29.7091C125.261 28.1892 124.525 26.158 124.525 23.9898C124.525 21.8216 125.262 19.7908 126.599 18.2715L131.937 12.2053C132.281 11.8144 132.474 11.2844 132.474 10.7318C132.474 10.1793 132.281 9.64921 131.937 9.25839L131.279 8.51112L132.998 6.55781C133.714 5.74414 133.714 4.425 132.998 3.61094C132.282 2.79707 131.121 2.79727 130.405 3.61113L128.686 5.56445L128.028 4.81718C126.997 3.64531 125.623 3 124.158 3C122.693 3 121.319 3.64531 120.288 4.81699L96.9945 31.2869C95.2935 33.2201 94.9212 36.1007 95.878 38.4486L79.9813 56.5128C79.6764 56.4214 79.36 56.3694 79.036 56.3694C78.0549 56.3694 77.1339 56.8022 76.4426 57.588L66.0722 69.3725C65.3807 70.1583 65 71.2049 65 72.3196C65 73.4348 65.3809 74.4815 66.0723 75.2665L89.4057 101.781C90.097 102.567 91.0179 103 91.9992 103C92.9804 103 93.9013 102.567 94.5926 101.782L104.962 89.9973C105.654 89.2118 106.035 88.1651 106.035 87.0502C106.035 86.6819 105.99 86.3221 105.909 85.9758L121.805 67.9114C122.532 68.2942 123.331 68.4967 124.158 68.4967C125.653 68.4967 127.056 67.8384 128.107 66.6429L151.401 40.1726C152.432 39.0013 153 37.4396 153 35.7747C153 34.1105 152.432 32.5488 151.401 31.3775ZM98.2312 41.6683L118.972 65.2374L103.666 82.6301L82.9254 59.0608L98.2312 41.6683ZM92.0038 98.8317C92.0035 98.832 92.0016 98.8324 91.9992 98.8324L91.9993 98.835L68.6654 72.3192L79.0358 60.535L102.369 87.0498L92.0038 98.8317ZM148.808 37.2257L125.514 63.6964C125.155 64.1046 124.673 64.3294 124.158 64.3294C123.645 64.3294 123.166 64.1061 122.807 63.7009L99.5828 37.3103C98.8403 36.4597 98.8418 35.0816 99.5878 34.2337L122.881 7.76386C123.22 7.37929 123.673 7.16777 124.158 7.16777C124.643 7.16777 125.097 7.37948 125.435 7.76405L127.383 9.97733C127.385 9.98006 127.387 9.9826 127.389 9.98495C127.391 9.98749 127.394 9.98924 127.396 9.99178L128.047 10.7314L124.005 15.3244C121.976 17.6308 120.857 20.7084 120.857 23.9898C120.857 27.2712 121.975 30.349 124.005 32.656L126.903 35.9486C128.933 38.2552 131.641 39.5257 134.529 39.5257C137.417 39.5257 140.125 38.2552 142.155 35.9484L146.196 31.3558L148.808 34.3246C149.146 34.7087 149.333 35.2238 149.333 35.7749C149.333 36.3263 149.146 36.8411 148.808 37.2257Z" fill="#000003"/>
<path d="M106.005 56.4044C104.654 54.8702 102.859 54.0249 100.949 54.0249C99.0392 54.0249 97.2436 54.87 95.8928 56.4046C93.1054 59.572 93.1054 64.7266 95.8928 67.8956C97.2434 69.43 99.039 70.2753 100.949 70.2753C102.858 70.2753 104.654 69.4301 106.005 67.8954C108.792 64.7266 108.792 59.5722 106.005 56.4044ZM103.412 64.9485C102.754 65.696 101.879 66.1077 100.949 66.1077C100.019 66.1077 99.1439 65.696 98.4861 64.9489C97.1284 63.4055 97.1284 60.8946 98.4857 59.352C99.1437 58.6044 100.019 58.1927 100.949 58.1927C101.879 58.1927 102.754 58.6044 103.412 59.3518C104.769 60.8944 104.769 63.4054 103.412 64.9485Z" fill="#000003"/>
<path d="M89.4066 87.051C89.7648 87.4581 90.234 87.6616 90.7032 87.6616C91.1726 87.6616 91.6417 87.4581 91.9999 87.051C92.7157 86.2376 92.7157 84.9182 91.9999 84.104L91.9693 84.0694C91.2532 83.2559 90.092 83.2559 89.3758 84.0694C88.6598 84.8829 88.6598 86.2022 89.3758 87.0165L89.4066 87.051Z" fill="#000003"/>
<path d="M79.0348 75.2665L85.6513 82.785C86.0093 83.1915 86.4787 83.3952 86.9477 83.3952C87.4168 83.3952 87.8864 83.1917 88.2444 82.785C88.9604 81.9712 88.9604 80.6516 88.2442 79.838L81.6279 72.3196C80.9118 71.5061 79.751 71.5061 79.0344 72.3196C78.3188 73.1331 78.3188 74.4524 79.0348 75.2665Z" fill="#000003"/>
<defs>
<linearGradient id="paint0_linear_1_2" x1="948" y1="51" x2="1500" y2="51" gradientUnits="userSpaceOnUse">
<stop offset="0.18" stop-color="#F41383" stop-opacity="0.95"/>
<stop offset="1" stop-color="#0019FF" stop-opacity="0.91"/>
</linearGradient>
</defs>
</svg>
